<svg width="22" height="22" viewBox="0 0 22 22" fill="none" xmlns="http://www.w3.org/2000/svg">
<path d="M1 11.2002C1 8.9202 1.00002 7.76982 1.52002 6.81982C2.04002 5.86982 2.99 5.28986 4.88 4.10986L6.88 2.87012C8.89 1.62012 9.89 1 11 1C12.11 1 13.11 1.62012 15.12 2.87012L17.12 4.10986C19.01 5.28986 19.96 5.86982 20.48 6.81982C21 7.76982 21 8.9102 21 11.2002V12.73C21 16.63 21 18.58 19.83 19.79C18.66 21 16.77 21 13 21H9C5.23 21 3.33998 21 2.16998 19.79C0.999983 18.58 1 16.63 1 12.73V11.2002Z" stroke="black" stroke-width="1.5"/>
</svg>
